Coordinates
version=1
nRows=24
nColumns=24
inDegrees=yes

Units are S.I. units (second, meters, Newtons, ...)
Angles are in degrees.

endheader
time	pelvis_tilt	pelvis_list	pelvis_rotation	pelvis_tx	pelvis_ty	pelvis_tz	hip_flexion_r	hip_adduction_r	hip_rotation_r	knee_angle_r	ankle_angle_r	subtalar_angle_r	mtp_angle_r	hip_flexion_l	hip_adduction_l	hip_rotation_l	knee_angle_l	ankle_angle_l	subtalar_angle_l	mtp_angle_l	lumbar_extension	lumbar_bending	lumbar_rotation
      0.93750000	      3.65652691	     -0.07416975	     -2.28398065	     -0.38857913	      1.07724065	      0.31410299	      3.58895524	      6.12287585	     -1.69017317	    -12.08729504	      1.27408882	    -10.34662734	      7.93971238	      7.02927051	      0.39339794	     -1.23256219	    -50.59005119	      2.07300313	    -21.61217416	      6.77482761	      0.68360941	      3.14004732	      1.76671676
      0.94166667	      3.68709348	     -0.10203838	     -2.38097018	     -0.38338694	      1.07767741	      0.31430098	      3.17549440	      6.15291883	     -1.58509024	    -11.94942318	      1.41954894	    -10.35379918	      7.92329066	      7.45072934	      0.39171751	     -0.95417290	    -50.13461942	      2.50363992	    -22.02114142	      6.53395470	      0.72101876	      3.15634907	      1.83989422
      0.94583333	      3.69641248	     -0.16580766	     -2.43528382	     -0.37832856	      1.07803033	      0.31458375	      2.77560845	      6.23738583	     -1.40997255	    -11.77081112	      1.52999153	    -10.32091881	      7.91437074	      7.91721885	      0.33233601	     -0.64322656	    -49.68928367	      2.71521342	    -22.32914118	      6.39645496	      0.69606944	      3.16120023	      1.89674416
      0.95000000	      3.70589225	     -0.21628195	     -2.51375468	     -0.37323309	      1.07836833	      0.31475209	      2.37980903	      6.28998494	     -1.27792274	    -11.61979905	      1.68497828	    -10.30785232	      7.90315858	      8.36553922	      0.30304259	     -0.34049139	    -49.21106486	      2.95702838	    -22.72696934	      6.24054086	      0.67534395	      3.19645004	      1.97043546
      0.95416667	      3.69201873	     -0.24551043	     -2.64831039	     -0.36828401	      1.07864678	      0.31476413	      2.04988587	      6.29491703	     -1.23140158	    -11.54049548	      1.95326060	    -10.12260131	      7.82826101	      8.83870377	      0.31619066	     -0.07287671	    -48.68785653	      2.82187700	    -23.57498208	      5.35229336	      0.50588879	      3.27037552	      2.34059128
      0.95833333	      3.71408142	     -0.30994668	     -2.72652515	     -0.36314444	      1.07898086	      0.31495779	      1.61726121	      6.36218895	     -1.09018172	    -11.33563735	      2.01935666	    -10.09705993	      7.81749321	      9.24861929	      0.26416935	      0.23854188	    -48.14804269	      3.01386973	    -23.64526879	      5.23472154	      0.57853211	      3.33014148	      2.36753667
      0.96250000	      3.69776454	     -0.36322328	     -2.82635663	     -0.35813163	      1.07921211	      0.31503408	      1.25148937	      6.40174126	     -0.96715422	    -11.18208526	      2.09892386	    -10.07613929	      7.81063015	      9.70575050	      0.23538493	      0.55906369	    -47.60127607	      3.15807897	    -23.72026199	      5.15929846	      0.54005619	      3.37523517	      2.39198485
      0.96666667	      3.70128001	     -0.45767540	     -2.87902848	     -0.35311852	      1.07943598	      0.31520887	      0.84253357	      6.50268053	     -0.85695489	    -10.97541507	      2.24512702	    -10.04319345	      7.79901834	     10.14631042	      0.14641449	      0.87980627	    -47.05842537	      3.34109643	    -23.82249951	      5.03956860	      0.54234080	      3.45433400	      2.44996655
      0.97083333	      3.68896515	     -0.53449695	     -2.94966734	     -0.34811435	      1.07961562	      0.31528052	      0.45516514	      6.57054244	     -0.75791114	    -10.78122001	      2.38414659	     -9.99808705	      7.78570554	     10.59158345	      0.08792536	      1.21175375	    -46.48027169	      3.47335224	    -23.86421440	      4.91337848	      0.52134465	      3.53855142	      2.51872678
      0.97500000	      3.69568802	     -0.61118135	     -3.01243128	     -0.34311063	      1.07980286	      0.31519417	      0.05699102	      6.62027120	     -0.77580940	    -10.62020983	      2.69806391	     -9.88682302	      7.73064116	     11.00677281	      0.04951962	      1.57689732	    -45.88377574	      3.68194146	    -23.76994167	      4.46038956	      0.47345507	      3.74043463	      2.76742891
      0.97916667	      3.65668748	     -0.69390191	     -3.10883704	     -0.33816159	      1.07989368	      0.31526642	     -0.30446287	      6.68875664	     -0.62353536	    -10.41236955	      2.70493142	     -9.81139620	      7.72289353	     11.46673876	     -0.02038090	      1.89997560	    -45.26563437	      3.72100106	    -23.74751006	      4.39526861	      0.42366126	      3.75780378	      2.79429820
      0.98333333	      3.62919417	     -0.78797271	     -3.18978626	     -0.33318044	      1.07998369	      0.31530314	     -0.68693040	      6.76681056	     -0.50543512	    -10.19073930	      2.76256879	     -9.75073287	      7.71514446	     11.90560207	     -0.10004342	      2.23259132	    -44.62832169	      3.76672895	    -23.69075123	      4.33294968	      0.41163836	      3.84065609	      2.82616267
      0.98750000	      3.63123377	     -0.91612414	     -3.21086332	     -0.32820361	      1.08006515	      0.31537832	     -1.12149962	      6.89618438	     -0.41741849	     -9.92529659	      2.88949598	     -9.67231253	      7.69910243	     12.31971775	     -0.22058383	      2.58746992	    -43.99778392	      3.82405794	    -23.51636684	      4.21871578	      0.44012818	      3.98989285	      2.90030503
      0.99166667	      3.60013757	     -1.02834587	     -3.23564598	     -0.32330923	      1.08005892	      0.31526697	     -1.49175947	      6.98907466	     -0.43428590	     -9.72071578	      3.10530740	     -9.48417536	      7.60529813	     12.76951311	     -0.30354766	      2.99208053	    -43.37302481	      4.16667515	    -22.85490987	      3.66017736	      0.30508898	      4.14131876	      3.20486347
      0.99583333	      3.58616708	     -1.13449496	     -3.31756485	     -0.31828871	      1.08009082	      0.31526736	     -1.91140060	      7.07380544	     -0.30614222	     -9.45752456	      3.15313345	     -9.43634693	      7.59050952	     13.16250824	     -0.39558234	      3.31373879	    -42.66764470	      4.16295992	    -22.78162473	      3.57327077	      0.35631891	      4.28622656	      3.22091002
      1.00000000	      3.55794927	     -1.25539600	     -3.35712243	     -0.31330849	      1.08006165	      0.31522552	     -2.31686440	      7.17904365	     -0.21154906	     -9.18929946	      3.23412964	     -9.38443559	      7.57253939	     13.57790785	     -0.49748970	      3.67678546	    -41.96661848	      4.14929508	    -22.59259144	      3.47548232	      0.35969258	      4.43130281	      3.25610916
      1.00416667	      3.54171677	     -1.37837061	     -3.38340805	     -0.30837243	      1.08001024	      0.31505906	     -2.72286333	      7.27700518	     -0.22190307	     -8.94653385	      3.36934718	     -9.34258147	      7.52185745	     13.97725563	     -0.58914022	      4.07222228	    -41.25372632	      4.20070587	    -22.06493214	      3.23744628	      0.30998904	      4.65152180	      3.35414551
      1.00833333	      3.49970506	     -1.50039036	     -3.43998989	     -0.30342423	      1.07989733	      0.31498032	     -3.11929020	      7.37646309	     -0.07720488	     -8.66852346	      3.40094586	     -9.26752907	      7.50954059	     14.38872594	     -0.69238787	      4.43280890	    -40.51754931	      4.24779461	    -21.94794238	      3.17742040	      0.30251736	      4.73479803	      3.37897555
      1.01250000	      3.42727111	     -1.59756499	     -3.51508862	     -0.29833289	      1.07975359	      0.31490200	     -3.48697111	      7.44611953	     -0.01070570	     -8.37979756	      3.44298492	     -9.22187504	      7.50300637	     14.80960428	     -0.77272301	      4.72086948	    -39.74230233	      4.25565960	    -21.82019737	      3.14665598	      0.25959421	      4.85068972	      3.38642698
      1.01666667	      3.46227914	     -1.76172719	     -3.47084194	     -0.29347799	      1.07965999	      0.31470960	     -3.96817378	      7.59929675	     -0.01700862	     -8.09349444	      3.56019686	     -9.17405896	      7.45620934	     15.14522916	     -0.90046607	      5.18093463	    -38.99563194	      4.22140409	    -21.04620521	      2.96969709	      0.26183945	      5.12912387	      3.48956695
      1.02083333	      3.37899667	     -1.86798725	     -3.54170863	     -0.28841675	      1.07944059	      0.31458723	     -4.33009364	      7.67576483	      0.08760331	     -7.79774759	      3.58319107	     -9.11686985	      7.44972241	     15.55964380	     -0.98874480	      5.48433647	    -38.18806413	      4.26894842	    -20.95667928	      2.94276998	      0.21370950	      5.21281734	      3.49740830
      1.02500000	      3.42040699	     -2.03313125	     -3.50235499	     -0.28354293	      1.07930095	      0.31442011	     -4.83239515	      7.83107247	      0.12390795	     -7.48073025	      3.64051882	     -9.08193695	      7.39528214	     15.86443419	     -1.12221610	      5.91073579	    -37.39940075	      4.27241219	    -20.19841677	      2.76580473	      0.20331649	      5.46597468	      3.59323569
      1.02916667	      3.33432565	     -2.14386562	     -3.56317516	     -0.27848536	      1.07901953	      0.31425490	     -5.19826010	      7.91006091	      0.23262821	     -7.17444639	      3.66191265	     -9.02914463	      7.38767124	     16.26065559	     -1.21180333	      6.22237993	    -36.55253662	      4.30458740	    -20.09995304	      2.73869621	      0.16854685	      5.56499790	      3.59908968
      1.03333333	      3.34664669	     -2.30809253	     -3.52756117	     -0.27355923	      1.07879871	      0.31411658	     -5.68711497	      8.06775358	      0.35185958	     -6.82333725	      3.69263585	     -8.97056669	      7.36781564	     16.57093069	     -1.35116592	      6.60887101	    -35.71402297	      4.21080562	    -19.72614677	      2.67750162	      0.26608484	      5.76529095	      3.63653138
